<?xml version="1.0" encoding="utf-8"?>
<!-- Generator: Adobe Illustrator 22.0.1, SVG Export Plug-In . SVG Version: 6.00 Build 0)  -->
<svg version="1.1" id="Layer_1" xmlns="http://www.w3.org/2000/svg" xmlns:xlink="http://www.w3.org/1999/xlink" x="0px" y="0px"
	 viewBox="0 0 120 40" style="enable-background:new 0 0 120 40;" xml:space="preserve">
<style type="text/css">
	.st0{fill:#1D1D1D;}
	.st1{fill:#FFFFFF;}
</style>
<rect x="0" y="0" class="st0" width="120" height="40"/>
<g>
	<circle class="st1" cx="21.2" cy="19.8" r="16.2"/>
	<path class="st0" d="M28.9,26.3l-6.5-15.6c-0.2-0.5-0.9-0.8-1.4-0.5c-0.2,0.1-0.4,0.3-0.5,0.5l-7.1,17h2.5l2.8-7l8.3,6.8
		c0.2,0.2,0.5,0.3,0.9,0.4c0.5,0.1,1.1-0.3,1.2-1v-0.1v-0.1C29,26.6,29,26.4,28.9,26.3z M21.4,13.5l4.2,10.4l-6.4-5L21.4,13.5z"/>
	<path class="st1" d="M51.1,21.6V20h5.4v5.1c-0.8,0.7-1.7,1.3-2.5,1.6c-0.8,0.4-1.8,0.5-2.7,0.5c-1.3,0-2.4-0.3-3.4-0.8
		S46.1,25,45.6,24s-0.8-2.3-0.8-3.6c0-1.4,0.3-2.5,0.8-3.7s1.3-2,2.2-2.5s2.1-0.8,3.4-0.8c0.9,0,1.8,0.2,2.5,0.5
		c0.8,0.4,1.4,0.7,1.8,1.4c0.4,0.6,0.8,1.3,0.9,2.3l-1.5,0.5c-0.2-0.7-0.4-1.3-0.7-1.6c-0.3-0.4-0.7-0.7-1.2-1s-1.1-0.4-1.8-0.4
		c-0.8,0-1.4,0.1-2,0.4s-1,0.5-1.4,1S47.2,17,47,17.6c-0.3,0.8-0.5,1.7-0.5,2.7c0,1.2,0.2,2.3,0.6,3.1c0.4,0.8,0.9,1.5,1.7,1.8
		s1.5,0.6,2.4,0.6c0.8,0,1.4-0.2,2.1-0.5c0.7-0.3,1.2-0.6,1.6-1v-2.5h-3.8V21.6z"/>
	<path class="st1" d="M57.5,27l4.9-13.6h1.8L69.5,27h-2L66,22.8h-5.4L59.2,27H57.5z M61.2,21.4h4.3l-1.4-3.8
		c-0.4-1.2-0.7-2.1-0.9-2.8c-0.2,0.9-0.4,1.7-0.7,2.6L61.2,21.4z"/>
	<path class="st1" d="M70.8,27V13.4h1.7v12.1h6.3v1.6L70.8,27L70.8,27z"/>
	<path class="st1" d="M79.4,27l4.9-13.6h1.8L91.3,27h-2l-1.5-4.2h-5.4L81.1,27H79.4z M83,21.4h4.3L86,17.6c-0.4-1.2-0.7-2.1-0.9-2.8
		c-0.2,0.9-0.4,1.7-0.7,2.6L83,21.4z"/>
	<path class="st1" d="M91.3,27l4.9-7.1l-4.3-6.5h2l2.3,3.5c0.5,0.7,0.8,1.3,1,1.6c0.3-0.5,0.6-1,1-1.5l2.5-3.6h1.9l-4.5,6.4l4.8,7.2
		h-2.1l-3.2-4.9c-0.2-0.3-0.3-0.5-0.6-0.9c-0.3,0.5-0.5,0.8-0.6,1l-3,4.8H91.3z"/>
	<path class="st1" d="M108.2,27v-5.8l-4.9-7.9h2l2.5,4.1c0.4,0.7,0.9,1.5,1.3,2.3c0.4-0.7,0.8-1.5,1.4-2.4l2.5-4h2l-5.1,7.9V27
		H108.2L108.2,27z"/>
</g>
</svg>
